<?xml version="1.0" encoding="UTF-8" standalone="no"?>
<!-- Created with Inkscape (http://www.inkscape.org/) -->

<svg
   width="122.63927mm"
   height="112.85423mm"
   viewBox="0 0 122.63927 112.85423"
   version="1.1"
   id="svg1"
   xml:space="preserve"
   xmlns="http://www.w3.org/2000/svg"
   xmlns:svg="http://www.w3.org/2000/svg"><defs
     id="defs1" /><g
     id="layer1"
     transform="translate(-30.209474,-64.615898)"><ellipse
       style="fill:#ffffff;stroke-width:0.264583"
       id="ellipse3"
       cx="107.04826"
       cy="89.499367"
       rx="16.873936"
       ry="11.879251" /><ellipse
       style="fill:#ffffff;stroke-width:0.264583"
       id="path3"
       cx="68.71067"
       cy="91.119263"
       rx="16.873936"
       ry="11.879251" /><path
       style="fill:#4f4d4f;stroke:none"
       d="m 117.75738,76.134707 c -10.17013,0 -20.239205,-1.203165 -30.427075,-0.505485 -6.23669,0.427098 -12.60186,0.981263 -18.78542,1.940685 -3.68752,0.572138 -7.369362,1.831493 -11.112502,1.993967 -3.58557,0.155635 -5.07536,-3.638134 -6.76689,-6.339584 -0.67698,-1.081168 -1.62345,-3.317045 -3.26278,-2.708911 -1.73503,0.643638 -3.00744,4.069778 -3.79318,5.619328 -2.92016,5.758846 -5.1912,12.094744 -7.08577,18.256254 -4.701683,15.290789 -7.151193,32.414209 -6.055203,48.418749 0.80125,11.70058 2.90106,23.18673 5.267983,34.66042 H 151.88863 c 1.82255,-23.09282 1.32137,-46.91045 -3.87647,-69.58542 -1.43849,-6.27523 -3.69634,-12.421959 -5.73673,-18.520839 -2.52146,-7.536828 -6.63817,-14.533162 -12.34722,-20.104455 -1.21665,-1.187298 -4.45232,-5.142039 -6.34612,-4.591217 -2.17598,0.632899 -3.33311,4.851981 -4.12574,6.704008 -0.67469,1.576446 -1.54662,3.028513 -1.69897,4.7625 m -0.26458,14.287504 c 1.17899,0.15888 2.41531,0.4186 3.43938,1.0569 3.23782,2.01813 3.48245,6.71613 0.50467,9.114239 -3.87548,3.12107 -10.32446,1.0388 -10.55864,-4.085729 -2.5474,1.12779 -5.18902,1.32398 -7.9375,1.32292 -6.890055,-0.003 -13.478925,-7.46616 -7.881145,-13.747716 5.816405,-6.526911 24.564185,-5.180159 22.433235,6.339386 m -56.620837,7.9375 c -1.01882,3.430129 -5.98804,6.001169 -9.25654,3.967319 -3.13672,-1.95186 -2.96137,-6.129699 0.02,-8.128589 0.87421,-0.58612 1.87293,-0.89524 2.88653,-1.1304 -2.07052,-11.152768 14.363542,-15.937182 21.960422,-10.137875 5.18221,3.955995 5.27661,11.475655 -0.79375,14.563525 -1.92858,0.98103 -3.94238,1.48017 -6.08542,1.67957 -2.90956,0.270719 -5.94767,0.230749 -8.731252,-0.81355 M 65.369875,82.36099 c -5.912432,1.399123 -3.69345,10.336441 2.11667,8.978481 5.61291,-1.31187 3.62227,-10.336546 -2.11667,-8.978481 m 38.099995,0.315824 c -5.185705,0.204743 -3.926285,8.441147 0.79375,8.441147 5.51983,0 4.77195,-8.660893 -0.79375,-8.441147 z"
       id="path1" /><ellipse
       style="fill:#808080;stroke-width:0.320501"
       id="path2"
       cx="55.037342"
       cy="98.238373"
       rx="5.8377399"
       ry="5.2388186" /><ellipse
       style="fill:#808080;stroke-width:0.370174"
       id="ellipse2"
       cx="116.97467"
       cy="96.102608"
       rx="6.7564788"
       ry="6.0382409" /></g></svg>
